<?xml version="1.0" encoding="UTF-8" standalone="no"?>
<svg
   class="feather feather-plus-circle"
   fill="none"
   height="22.105524"
   stroke="currentColor"
   stroke-linecap="round"
   stroke-linejoin="round"
   stroke-width="2"
   viewBox="0 0 22.069868 22.105524"
   width="22.069868"
   version="1.1"
   id="svg15"
   sodipodi:docname="8666718_plus_circle_icon.svg"
   xmlns:inkscape="http://www.inkscape.org/namespaces/inkscape"
   xmlns:sodipodi="http://sodipodi.sourceforge.net/DTD/sodipodi-0.dtd"
   xmlns="http://www.w3.org/2000/svg"
   xmlns:svg="http://www.w3.org/2000/svg">
  <defs
     id="defs19" />
  <sodipodi:namedview
     id="namedview17"
     pagecolor="#ffffff"
     bordercolor="#000000"
     borderopacity="0.25"
     inkscape:showpageshadow="2"
     inkscape:pageopacity="0.0"
     inkscape:pagecheckerboard="0"
     inkscape:deskcolor="#d1d1d1"
     showgrid="false" />
  <circle
     cx="11.035972"
     cy="11.040008"
     r="10"
     id="circle9" />
  <line
     x1="11.035972"
     x2="11.035972"
     y1="7.0400076"
     y2="15.040008"
     id="line11" />
  <line
     x1="7.0359721"
     x2="15.035972"
     y1="11.040008"
     y2="11.040008"
     id="line13" />
  <path
     style="fill:#666666;stroke:#000000;stroke-width:0.20339"
     d="M 9.7647859,21.909406 C 6.1906045,21.50047 2.9488715,19.22297 1.2800681,15.948415 -1.8191126,9.8671485 1.4516029,2.4218901 8.0559485,0.52421347 14.977703,-1.4646664 21.968175,3.819202 21.968175,11.040007 c 0,5.571663 -4.216637,10.252124 -9.796716,10.87434 -1.085349,0.121024 -1.309746,0.120563 -2.4066731,-0.0049 z M 13.32626,19.797372 c 2.626116,-0.705919 4.755503,-2.480246 5.889268,-4.907274 0.661179,-1.41537 0.766127,-1.942776 0.766127,-3.850091 0,-1.9073135 -0.104948,-2.43472 -0.766127,-3.850091 C 16.649273,1.6963874 9.4104219,0.26106177 4.928822,4.3571357 3.6371665,5.5376775 2.6509409,7.2093928 2.2435501,8.9088427 1.959534,10.093629 1.958855,11.983561 2.2420211,13.16477 c 0.2235986,0.932726 0.8088416,2.268796 1.317915,3.008709 0.8707344,1.265569 2.3977762,2.527054 3.8150189,3.151576 0.5785954,0.254965 1.7758719,0.599303 2.4406779,0.701942 0.6951301,0.107322 2.7594471,-0.0277 3.5106271,-0.229625 z"
     id="path263" />
  <path
     style="fill:#666666;stroke:#000000;stroke-width:0.20339"
     d="M 10.719509,15.92558 C 10.601387,15.87665 10.406896,15.712223 10.287306,15.560189 10.085307,15.303389 10.06987,15.165614 10.06987,13.619513 V 11.955261 H 8.3840814 6.6982926 l -0.297262,-0.297262 c -0.3996619,-0.399662 -0.3996619,-0.836322 0,-1.235984 l 0.297262,-0.297262 H 8.3840814 10.06987 V 8.4483916 6.7720298 l 0.2922,-0.3270281 c 0.411087,-0.4600865 0.936717,-0.4600865 1.347804,0 l 0.2922,0.3270281 v 1.6763618 1.6763614 h 1.685788 1.685789 l 0.297262,0.297262 c 0.202881,0.202881 0.297262,0.399094 0.297262,0.617992 0,0.218898 -0.09438,0.415111 -0.297262,0.617992 l -0.297262,0.297262 h -1.685789 -1.685788 v 1.676362 1.676362 l -0.279661,0.303059 c -0.309457,0.335348 -0.675517,0.450153 -1.002904,0.314536 z"
     id="path265" />
</svg>
