<?xml version="1.0" encoding="UTF-8" standalone="no"?>
<svg
   class="feather feather-x-circle"
   fill="none"
   height="22.025854"
   stroke="currentColor"
   stroke-linecap="round"
   stroke-linejoin="round"
   stroke-width="2"
   viewBox="0 0 22.02112 22.025854"
   width="22.02112"
   version="1.1"
   id="svg2187"
   sodipodi:docname="8666736_x_circle_icon.svg"
   xmlns:inkscape="http://www.inkscape.org/namespaces/inkscape"
   xmlns:sodipodi="http://sodipodi.sourceforge.net/DTD/sodipodi-0.dtd"
   xmlns="http://www.w3.org/2000/svg"
   xmlns:svg="http://www.w3.org/2000/svg">
  <defs
     id="defs2191" />
  <sodipodi:namedview
     id="namedview2189"
     pagecolor="#ffffff"
     bordercolor="#000000"
     borderopacity="0.25"
     inkscape:showpageshadow="2"
     inkscape:pageopacity="0.0"
     inkscape:pagecheckerboard="0"
     inkscape:deskcolor="#d1d1d1"
     showgrid="false" />
  <circle
     cx="11"
     cy="11"
     r="10"
     id="circle2181"
     style="fill:none" />
  <line
     x1="14"
     x2="8"
     y1="8"
     y2="14"
     id="line2183" />
  <line
     x1="8"
     x2="14"
     y1="8"
     y2="14"
     id="line2185" />
  <path
     style="fill:none;stroke:#000000;stroke-width:0.20339"
     d="M 9.164367,21.790263 C 4.8507128,20.966567 1.5239793,17.899623 0.3964094,13.707005 0.1621144,12.835831 0.1333328,12.539674 0.1333328,11 c 0,-1.543312 0.028469,-1.834722 0.2653191,-2.7158453 C 1.4357694,4.4259027 4.4259027,1.4357694 8.2841547,0.3986519 9.165278,0.1618015 9.456688,0.1333328 11,0.1333328 c 1.543312,0 1.834722,0.028469 2.715845,0.2653191 3.862308,1.0382077 6.847296,4.0231947 7.885503,7.8855028 C 21.838199,9.165278 21.866667,9.456688 21.866667,11 c 0,1.539674 -0.02878,1.835831 -0.263076,2.707005 -1.039893,3.866609 -4.065192,6.891185 -7.887746,7.885862 -1.221996,0.317978 -3.420626,0.413333 -4.551478,0.197396 z m 3.709579,-1.941246 c 3.485544,-0.733208 6.241863,-3.489527 6.975071,-6.975071 0.193838,-0.92148 0.193838,-2.826413 0,-3.747893 -0.733208,-3.4855433 -3.489527,-6.2418625 -6.975071,-6.9750692 -0.92148,-0.1938393 -2.826412,-0.1938393 -3.747893,0 -3.4752664,0.7310449 -6.2440243,3.4998028 -6.9750692,6.9750692 -0.1938393,0.92148 -0.1938393,2.826413 0,3.747893 0.7231564,3.437767 3.4753875,6.216781 6.9011802,6.968341 0.864105,0.18957 2.935252,0.193217 3.821782,0.0067 z"
     id="path2331" />
  <path
     style="fill:none;stroke:#000000;stroke-width:0.20339"
     d="M 8.861252,21.783733 C 4.7142436,20.827105 1.6548225,17.977156 0.3962424,13.898305 0.1461122,13.087674 0.129519,12.907367 0.129519,11 0.129519,9.092633 0.146112,8.912326 0.3962424,8.1016949 1.574414,4.2834343 4.2834343,1.574414 8.1016949,0.3962424 8.912326,0.1461122 9.092633,0.129519 11,0.129519 c 1.907367,0 2.087674,0.016593 2.898305,0.2667234 3.820535,1.1788732 6.57192,3.9334851 7.696428,7.7054525 0.208052,0.6978738 0.267756,1.1582881 0.3099,2.3898301 0.05844,1.707796 -0.04782,2.629338 -0.439002,3.807177 -1.197551,3.605806 -4.084296,6.346891 -7.719868,7.330335 -1.052818,0.284793 -3.926057,0.375791 -4.884511,0.154696 z m 4.385193,-2.090435 c 3.130452,-0.797814 5.649039,-3.316401 6.446853,-6.446853 0.287755,-1.129088 0.289054,-3.354428 0.0026,-4.4928894 C 19.293761,7.1551086 18.084009,5.1751436 16.932879,4.231368 15.774212,3.2814124 14.537508,2.6357367 13.246445,2.3067016 c -1.135165,-0.289303 -3.357726,-0.289303 -4.4928894,0 -3.1304528,0.7978139 -5.6490401,3.3164012 -6.446854,6.446854 -0.289303,1.1351634 -0.289303,3.3577244 0,4.4928894 0.790243,3.100746 3.3080278,5.632818 6.4051628,6.441509 1.1005716,0.287371 3.4172576,0.2901 4.5345806,0.0053 z"
     id="path2333" />
  <path
     style="fill:#ff0000;stroke:#000000;stroke-width:0.20339"
     d="M 8.4367705,21.722961 C 6.4190996,21.180751 4.8251281,20.27973 3.3481686,18.846538 2.0415625,17.578651 1.198822,16.236939 0.4637052,14.254237 L 0.1243609,13.338983 0.1215025,11.050847 C 0.1186795,8.7910891 0.1222908,8.7519916 0.4126933,7.8983051 1.0365136,6.0644814 1.8857687,4.6545752 3.153462,3.3481686 4.4417254,2.0205636 5.9930442,1.0608147 7.8983051,0.4126933 8.7483518,0.123529 8.799879,0.1186441 11,0.1186441 c 2.200121,0 2.251648,0.00488 3.101695,0.2940492 1.833824,0.6238203 3.24373,1.4730754 4.550137,2.7407687 1.331312,1.2918614 2.22245,2.7265437 2.902266,4.6724877 L 21.881356,8.7627119 21.878946,11 c -0.0024,2.185304 -0.0091,2.257373 -0.29174,3.101695 -1.021819,3.052862 -3.035071,5.405449 -5.807541,6.786403 -1.66757,0.830608 -2.707121,1.042398 -5.084746,1.035922 -1.178495,-0.0032 -1.692067,-0.04894 -2.2581444,-0.201059 z m 4.5099625,-2.029969 c 1.397724,-0.237421 3.187829,-1.213618 4.342069,-2.367858 1.974362,-1.974362 2.792391,-4.391326 2.506713,-7.40638 C 19.616928,8.0339456 18.833414,6.3213004 17.464487,4.8234764 16.15146,3.3868148 14.122868,2.3979301 12.094479,2.205739 9.071786,1.919337 6.6543284,2.7317356 4.693032,4.693032 2.7306185,6.6554456 1.8993034,9.129205 2.2020516,12.105489 c 0.3438034,3.379891 2.7367307,6.306544 6.0388346,7.385753 1.0670208,0.348728 3.2816188,0.443673 4.7058468,0.20175 z"
     id="path2335" />
  <path
     style="fill:#ff0000;stroke:#000000;stroke-width:0.20339"
     d="M 7.3580093,14.630029 C 7.167168,14.430833 7.0847458,14.23677 7.0847458,13.98663 c 0,-0.323484 0.1231118,-0.480165 1.2711864,-1.617798 C 9.055085,11.676038 9.627119,11.060064 9.627119,11 9.627119,10.93994 9.055085,10.323962 8.3559322,9.631168 7.2078576,8.4935346 7.0847458,8.3368541 7.0847458,8.0133697 c 0,-0.5183042 0.4171231,-0.9286239 0.9440213,-0.9286239 0.3722338,0 0.4808945,0.081888 1.7098709,1.2885842 l 1.312376,1.288584 1.259925,-1.288584 c 1.190136,-1.2172085 1.282022,-1.2885842 1.658856,-1.2885842 0.538796,0 0.945459,0.408626 0.945459,0.9500233 0,0.3484645 -0.103399,0.4854754 -1.261679,1.6718039 l -1.261678,1.292232 1.261678,1.294017 c 1.17124,1.201259 1.261679,1.322041 1.261679,1.684961 0,0.533918 -0.412141,0.937471 -0.957421,0.937471 -0.361514,0 -0.469848,-0.08476 -1.646894,-1.288584 L 11.051014,12.338086 9.738638,13.62667 c -1.2289764,1.206696 -1.3376371,1.288584 -1.7098709,1.288584 -0.3027603,0 -0.4626207,-0.06798 -0.6707578,-0.285225 z"
     id="path2337" />
</svg>
