<?xml version="1.0" encoding="UTF-8" standalone="no"?>
<svg
   class="feather feather-check-circle"
   fill="none"
   height="22.103268"
   stroke="currentColor"
   stroke-linecap="round"
   stroke-linejoin="round"
   stroke-width="2"
   viewBox="0 0 22.098349 22.103268"
   width="22.098349"
   version="1.1"
   id="svg13"
   sodipodi:docname="8666656_check_circle_icon.svg"
   xmlns:inkscape="http://www.inkscape.org/namespaces/inkscape"
   xmlns:sodipodi="http://sodipodi.sourceforge.net/DTD/sodipodi-0.dtd"
   xmlns="http://www.w3.org/2000/svg"
   xmlns:svg="http://www.w3.org/2000/svg">
  <defs
     id="defs17" />
  <sodipodi:namedview
     id="namedview15"
     pagecolor="#ffffff"
     bordercolor="#000000"
     borderopacity="0.25"
     inkscape:showpageshadow="2"
     inkscape:pageopacity="0.0"
     inkscape:pagecheckerboard="0"
     inkscape:deskcolor="#d1d1d1"
     showgrid="false" />
  <path
     d="m 21.038313,10.145977 v 0.92 a 10,10 0 1 1 -5.93,-9.1400004"
     id="path9" />
  <polyline
     points="22 4 12 14.01 9 11.01"
     id="polyline11"
     transform="translate(-0.96168679,-0.93402338)" />
  <path
     style="fill:#00ff00;stroke:#000000;stroke-width:0.20339"
     d="M 9.9196692,21.948847 C 6.145143,21.512035 2.9494147,19.294788 1.2753993,15.951316 0.53370381,14.469945 0.21973471,13.272926 0.13833601,11.616222 -0.01115912,8.5735528 1.001777,5.8088588 3.0852933,3.5728364 5.2123045,1.2901355 8.7123663,-0.11713119 11.648482,0.12984272 c 1.634884,0.1375195 3.784279,0.7477657 4.18211,1.18736528 0.298347,0.3296694 0.249416,0.9701727 -0.09687,1.2680364 -0.359233,0.308999 -0.689526,0.3067194 -1.532507,-0.010578 C 13.830034,2.4349548 13.13215,2.251904 12.650361,2.1678871 7.8628104,1.333008 3.3560266,4.2833965 2.2334995,8.9873381 2.0461913,9.7722516 2.0237108,10.097984 2.0689859,11.371062 c 0.06054,1.702307 0.198282,2.300722 0.8309823,3.610169 1.081117,2.237499 2.9115031,3.861434 5.2122358,4.624344 4.368112,1.448438 9.018111,-0.459758 11.020172,-4.522292 0.619599,-1.257273 0.806851,-2.034565 0.894285,-3.712221 0.09701,-1.8614244 0.233574,-2.1355934 1.063723,-2.1355934 0.273603,0 0.416083,0.07428 0.629924,0.328418 l 0.276346,0.328419 -0.05563,1.4766664 c -0.04323,1.147363 -0.114595,1.692112 -0.320031,2.442768 -0.958519,3.502396 -3.507676,6.30659 -6.833324,7.516977 -1.493693,0.543638 -3.414542,0.788334 -4.8679978,0.62013 z"
     id="path261" />
  <path
     style="fill:#00ff00;stroke:#000000;stroke-width:0.20339"
     d="M 8.8857373,12.260006 C 7.2175095,10.59893 7.123059,10.484078 7.123059,10.116591 c 0,-0.5118814 0.4428087,-0.9828174 0.9241161,-0.9828174 0.2855622,0 0.5012183,0.169816 1.6143251,1.2711864 0.7066018,0.699153 1.3276898,1.271186 1.3801928,1.271186 0.0525,0 2.248075,-2.1508474 4.879047,-4.7796609 4.378091,-4.3744996 4.812053,-4.779661 5.119418,-4.779661 0.487221,0 0.930358,0.4675614 0.930358,0.9816347 0,0.3755694 -0.156964,0.5440747 -5.264779,5.6518905 -5.150443,5.1504437 -5.273386,5.2647807 -5.661051,5.2647807 -0.377169,0 -0.481239,-0.08461 -2.1589487,-1.755124 z"
     id="path263" />
</svg>
